# xmcd
#
# Track frame offsets:
#	150
#	20467
#	42001
#	64964
#	81668
#	109804
#	127775
#	144379
#	164253
#	184137
#	202264
#	222745
#	243652
#	261568
#	276477
#
# Disc length: 3922 seconds
#
# Revision: 0
# Processed by: cddbd v1.5.2PL0 Copyright (c) Steve Scherf et al.
# Submitted via: EasyCDDAExtractor 12.0.0.1
#
DISCID=f30f500f
DTITLE=刘芳 - 在醉一次【精选二】SKZ工作室制作
DYEAR=2008
DGENRE=Country
TTITLE0=青花瓷
TTITLE1=回心转意
TTITLE2=两只蝴蝶
TTITLE3=芒花
TTITLE4=成吉思汗的传说
TTITLE5=你的背包
TTITLE6=突然的自我
TTITLE7=花香
TTITLE8=七月初七
TTITLE9=吻别英文版
TTITLE10=你的选择
TTITLE11=被爱伤害过的人
TTITLE12=東南西北风
TTITLE13=小薇
TTITLE14=朋友別哭
EXTD=
EXTT0=
EXTT1=
EXTT2=
EXTT3=
EXTT4=
EXTT5=
EXTT6=
EXTT7=
EXTT8=
EXTT9=
EXTT10=
EXTT11=
EXTT12=
EXTT13=
EXTT14=
PLAYORDER=
